<?xml version="1.0" encoding="UTF-8" standalone="no"?>
<svg
    xmlns:dc="http://purl.org/dc/elements/1.1/"
    xmlns:cc="http://creativecommons.org/ns#"
    xmlns:rdf="http://www.w3.org/1999/02/22-rdf-syntax-ns#"
    xmlns:svg="http://www.w3.org/2000/svg"
    xmlns="http://www.w3.org/2000/svg"
   viewBox="0 0 338.98666 89.293335"
   height="89.293335"
   width="338.98666"
   xml:space="preserve"
   id="svg2"
   version="1.1">
    <defs
     id="defs6" />
    <g
     transform="matrix(1.3333333,0,0,-1.3333333,0,89.293333)"
     id="g10">
        <g
       transform="scale(0.1)"
       id="g12">
            <path
         id="path14"
         style="fill:#2e3191;fill-opacity:1;fill-rule:nonzero;stroke:none"
         d="m 404.719,288.281 h 47.7617 V 544.863 H 404.719 Z" />
            <path
         id="path16"
         style="fill:#2e3191;fill-opacity:1;fill-rule:nonzero;stroke:none"
         d="m 642.813,288.281 h -47.047 v 107.278 c 0,24.949 -17.11,35.64 -34.93,35.64 -17.824,0 -34.934,-10.691 -34.934,-35.64 V 288.281 h -47.047 v 183.914 h 47.047 v -16.043 c 8.2,12.481 26.735,21.036 43.129,21.036 37.43,0 73.782,-25.665 73.782,-79.844 V 288.281" />
            <path
         id="path18"
         style="fill:#2e3191;fill-opacity:1;fill-rule:nonzero;stroke:none"
         d="m 761.504,330.695 v -42.414 h -45.266 c -32.793,0 -47.043,17.461 -47.043,47.039 v 178.578 h 47.043 v -41.703 h 45.266 v -42.418 h -45.266 v -84.472 c 0,-8.559 2.141,-14.61 13.547,-14.61 h 31.719" />
            <path
         id="path20"
         style="fill:#2e3191;fill-opacity:1;fill-rule:nonzero;stroke:none"
         d="m 823.523,406.973 v -0.36 h 69.504 v 0.36 c -1.425,19.238 -13.547,31.355 -34.574,31.355 -21.027,0 -33.148,-12.469 -34.93,-31.355 z m 0,-39.207 v -1.075 c 0,-21.742 12.477,-35.996 34.93,-35.996 16.395,0 27.801,7.84 32.438,20.313 h 47.761 c -7.492,-38.488 -35.289,-62.727 -80.199,-62.727 -52.75,0 -81.976,33.496 -81.976,84.473 v 23.516 c 0,50.976 29.226,84.484 81.976,84.484 52.754,0 81.981,-33.508 81.981,-84.484 V 367.766 H 823.523" />
            <path
         id="path22"
         style="fill:#2e3191;fill-opacity:1;fill-rule:nonzero;stroke:none"
         d="m 1014.57,288.281 h -47.047 v 183.914 h 47.047 v -19.957 c 5.35,12.117 21.03,23.164 42.77,23.164 h 14.26 v -45.976 h -22.1 c -17.82,0 -34.93,-10.696 -34.93,-35.649 V 288.281" />
            <path
         id="path24"
         style="fill:#2e3191;fill-opacity:1;fill-rule:nonzero;stroke:none"
         d="m 1094.17,370.613 h 49.18 c 2.86,-21.035 19.25,-34.929 43.13,-34.929 21.03,0 35.65,7.843 35.65,24.953 0,13.894 -8.2,21.738 -25.67,26.375 l -42.06,11.394 c -38.13,10.344 -57.02,37.074 -57.02,73.789 0,49.895 39.2,72.707 82.69,72.707 49.9,0 80.91,-29.226 86.26,-71.64 h -49.19 c -4.28,16.758 -21.74,24.238 -37.78,24.238 -19.97,0 -34.22,-7.844 -34.22,-25.305 0,-14.617 11.4,-21.035 24.95,-24.597 l 40.63,-11.043 c 38.49,-10.344 59.17,-33.86 59.17,-75.918 0,-44.914 -29.23,-72.356 -83.41,-72.356 -54.53,0 -89.81,32.785 -92.31,82.332" />
            <path
         id="path26"
         style="fill:#2e3191;fill-opacity:1;fill-rule:nonzero;stroke:none"
         d="m 1383.88,271.887 c -9.98,-27.805 -12.83,-48.125 -45.62,-48.125 h -34.93 v 42.422 h 19.6 c 8.55,0 11.05,4.277 12.48,8.191 l 5.35,14.973 -65.59,183.914 h 49.55 l 40.98,-117.266 40.99,117.266 h 49.55 l -72.36,-201.375" />
            <path
         id="path28"
         style="fill:#2e3191;fill-opacity:1;fill-rule:nonzero;stroke:none"
         d="m 1451.96,351.367 h 47.05 c 2.14,-14.258 18.89,-20.672 34.22,-20.672 9.27,0 23.17,2.137 23.17,14.254 0,7.485 -5.35,11.762 -16.4,14.262 l -38.5,8.555 c -19.95,4.629 -45.26,20.308 -45.26,56.304 0,36.008 32.43,56.684 70.22,56.684 37.42,0 68.07,-17.824 71.28,-59.531 h -48.12 c -2.49,11.765 -12.83,17.105 -24.59,17.105 -13.55,0 -21.39,-5.34 -21.74,-13.894 0,-7.84 6.41,-11.758 14.25,-13.543 l 41.35,-9.27 c 19.96,-4.629 44.55,-18.535 44.55,-56.672 0,-40.996 -33.15,-56.668 -71.64,-56.668 -38.14,0 -78.05,19.602 -79.84,63.086" />
            <path
         id="path30"
         style="fill:#2e3191;fill-opacity:1;fill-rule:nonzero;stroke:none"
         d="m 1778.32,406.973 v -0.36 h 69.5 v 0.36 c -1.43,19.238 -13.55,31.355 -34.58,31.355 -21.03,0 -33.15,-12.469 -34.92,-31.355 z m 0,-39.207 v -1.075 c 0,-21.742 12.47,-35.996 34.92,-35.996 16.4,0 27.8,7.84 32.44,20.313 h 47.76 c -7.49,-38.488 -35.29,-62.727 -80.2,-62.727 -52.75,0 -81.98,33.496 -81.98,84.473 v 23.516 c 0,50.976 29.23,84.484 81.98,84.484 52.76,0 81.98,-33.508 81.98,-84.484 v -28.504 h -116.9" />
            <path
         id="path32"
         style="fill:#2e3191;fill-opacity:1;fill-rule:nonzero;stroke:none"
         d="m 2084.13,288.281 h -47.05 v 107.278 c 0,24.597 -17.1,35.64 -33.86,35.64 -16.75,0 -33.86,-11.043 -33.86,-35.64 V 288.281 h -47.05 v 183.914 h 47.05 v -15.332 c 8.91,12.485 25.66,20.325 41.7,20.325 19.25,0 36.71,-7.129 49.55,-24.239 13.18,16.035 32.08,24.239 57.38,24.239 46.69,0 80.91,-26.028 80.91,-79.844 V 288.281 h -47.04 v 107.278 c 0,24.597 -17.11,35.64 -33.87,35.64 -16.75,0 -33.86,-11.043 -33.86,-35.64 V 288.281" />
            <path
         id="path34"
         style="fill:#2e3191;fill-opacity:1;fill-rule:nonzero;stroke:none"
         d="m 2216.73,351.367 h 47.05 c 2.14,-14.258 18.89,-20.672 34.21,-20.672 9.27,0 23.17,2.137 23.17,14.254 0,7.485 -5.34,11.762 -16.39,14.262 l -38.5,8.555 c -19.96,4.629 -45.26,20.308 -45.26,56.304 0,36.008 32.43,56.684 70.21,56.684 37.43,0 68.08,-17.824 71.28,-59.531 h -48.11 c -2.5,11.765 -12.83,17.105 -24.6,17.105 -13.54,0 -21.38,-5.34 -21.74,-13.894 0,-7.84 6.42,-11.758 14.26,-13.543 l 41.35,-9.27 c 19.96,-4.629 44.55,-18.535 44.55,-56.672 0,-40.996 -33.15,-56.668 -71.64,-56.668 -38.14,0 -78.06,19.602 -79.84,63.086" />
            <path
         id="path36"
         style="fill:#2e3191;fill-opacity:1;fill-rule:nonzero;stroke:none"
         d="m 1711.34,330.695 v -42.414 h -45.27 c -32.78,0 -47.04,17.461 -47.04,47.039 v 178.578 h 47.04 v -41.703 h 45.27 v -42.418 h -45.27 v -84.472 c 0,-8.559 2.14,-14.61 13.55,-14.61 h 31.72" />
            <path
         id="path38"
         style="fill:#2e3191;fill-opacity:1;fill-rule:nonzero;stroke:none"
         d="M 168.559,537.063 98.0469,572.344 V 124.656 L 239.078,54.0938 v 78.8552 l -70.519,35.274 v 368.84" />
            <path
         id="path40"
         style="fill:#2F9A92;fill-opacity:1;fill-rule:nonzero;stroke:none"
         d="M 239.078,132.949 309.59,97.6484 V 545.344 L 168.559,615.91 v -78.847 l 70.519,-35.278 V 132.949" />
            <path
         id="path42"
         style="fill:#2F9A92;fill-opacity:1;fill-rule:nonzero;stroke:none"
         d="m 461.156,196.691 v -96.378 h -23.457 v 96.378 h -33.144 v 22.606 h 89.746 v -22.606 h -33.145" />
            <path
         id="path44"
         style="fill:#2F9A92;fill-opacity:1;fill-rule:nonzero;stroke:none"
         d="m 515.727,100.313 h -22.442 v 87.707 h 22.442 v -9.512 c 2.55,5.769 10.031,11.043 20.402,11.043 h 6.797 v -21.922 h -10.539 c -8.496,0 -16.66,-5.109 -16.66,-17.004 v -50.312" />
            <path
         id="path46"
         style="fill:#2F9A92;fill-opacity:1;fill-rule:nonzero;stroke:none"
         d="m 569.273,127.168 c 0,-4.246 3.231,-8.836 13.262,-8.836 11.563,0 20.742,6.453 20.742,17.508 v 2.89 c -12.754,-0.847 -24.992,-1.875 -29.238,-4.082 -3.742,-1.875 -4.766,-3.742 -4.766,-7.48 z m 33.661,30.254 c -1.532,7.82 -7.137,12.754 -16.317,12.754 -7.824,0 -13.262,-3.738 -15.469,-9.688 h -22.609 c 3.566,18.352 16.66,29.914 38.078,29.914 25.156,0 39.09,-15.976 39.09,-40.285 v -49.804 h -22.43 v 10.031 c -4.082,-6.633 -11.054,-11.7307 -24.484,-11.7307 -20.059,0 -31.953,9.8557 -31.953,26.0037 0,12.746 4.414,20.403 16.652,26.176 8.672,4.082 26.18,5.437 39.442,6.465 v 0.164" />
            <path
         id="path48"
         style="fill:#2F9A92;fill-opacity:1;fill-rule:nonzero;stroke:none"
         d="m 663.109,157.422 28.047,30.598 h 27.199 l -31.789,-34.504 36.379,-53.203 h -26.347 l -25.157,36.718 -8.332,-9.179 v -27.539 h -22.441 v 118.984 h 22.441 v -61.875" />
            <path
         id="path50"
         style="fill:#2F9A92;fill-opacity:1;fill-rule:nonzero;stroke:none"
         d="m 815.082,140.09 c -1.016,-24.992 -17.168,-41.4767 -44.871,-41.4767 -28.555,0 -44.875,17.6757 -44.875,44.0237 v 34.336 c 0,26.347 16.32,44.023 44.875,44.023 27.703,0 43.855,-16.484 44.871,-41.473 h -22.937 c -1.192,12.071 -10.372,18.868 -21.934,18.868 -12.414,0 -22.102,-7.649 -22.102,-21.418 v -34.336 c 0,-13.77 9.688,-21.414 22.102,-21.414 11.562,0 20.742,6.629 21.934,18.867 h 22.937" />
            <path
         id="path52"
         style="fill:#2F9A92;fill-opacity:1;fill-rule:nonzero;stroke:none"
         d="m 846.031,127.168 c 0,-4.246 3.231,-8.836 13.262,-8.836 11.562,0 20.742,6.453 20.742,17.508 v 2.89 c -12.754,-0.847 -24.992,-1.875 -29.238,-4.082 -3.742,-1.875 -4.766,-3.742 -4.766,-7.48 z m 33.66,30.254 c -1.531,7.82 -7.136,12.754 -16.316,12.754 -7.824,0 -13.262,-3.738 -15.469,-9.688 h -22.609 c 3.566,18.352 16.66,29.914 38.078,29.914 25.156,0 39.09,-15.976 39.09,-40.285 v -49.804 h -22.43 v 10.031 c -4.082,-6.633 -11.055,-11.7307 -24.484,-11.7307 -20.059,0 -31.953,9.8557 -31.953,26.0037 0,12.746 4.414,20.403 16.652,26.176 8.672,4.082 26.18,5.437 39.441,6.465 v 0.164" />
            <path
         id="path54"
         style="fill:#2F9A92;fill-opacity:1;fill-rule:nonzero;stroke:none"
         d="m 939.879,100.313 h -22.441 v 87.707 h 22.441 v -9.512 c 2.547,5.769 10.027,11.043 20.398,11.043 h 6.797 v -21.922 h -10.535 c -8.508,0 -16.66,-5.109 -16.66,-17.004 v -50.312" />
            <path
         id="path56"
         style="fill:#2F9A92;fill-opacity:1;fill-rule:nonzero;stroke:none"
         d="m 994.438,155.215 v -0.164 h 33.152 v 0.164 c -0.68,9.18 -6.46,14.961 -16.49,14.961 -10.03,0 -15.803,-5.946 -16.662,-14.961 z m 0,-18.699 v -0.508 c 0,-10.371 5.962,-17.168 16.662,-17.168 7.82,0 13.26,3.738 15.47,9.687 h 22.78 c -3.57,-18.359 -16.83,-29.9137 -38.25,-29.9137 -25.159,0 -39.092,15.9767 -39.092,40.2847 v 11.219 c 0,24.309 13.933,40.285 39.092,40.285 25.15,0 39.1,-15.976 39.1,-40.285 v -13.601 h -55.762" />
        </g>
    </g>
</svg>